<svg width="24" height="24" viewBox="0 0 24 24" fill="none" xmlns="http://www.w3.org/2000/svg">
<path d="M13.5929 12L18.046 7.54687C18.2574 7.3359 18.3762 7.04962 18.3765 6.75099C18.3768 6.45237 18.2584 6.16587 18.0474 5.95453C17.8364 5.74319 17.5502 5.62431 17.2515 5.62404C16.9529 5.62378 16.6664 5.74215 16.4551 5.95312L12.002 10.4062L7.54883 5.95312C7.33748 5.74178 7.05084 5.62305 6.75195 5.62305C6.45307 5.62305 6.16642 5.74178 5.95508 5.95312C5.74373 6.16447 5.625 6.45111 5.625 6.75C5.625 7.04888 5.74373 7.33553 5.95508 7.54687L10.4082 12L5.95508 16.4531C5.74373 16.6645 5.625 16.9511 5.625 17.25C5.625 17.5489 5.74373 17.8355 5.95508 18.0469C6.16642 18.2582 6.45307 18.3769 6.75195 18.3769C7.05084 18.3769 7.33748 18.2582 7.54883 18.0469L12.002 13.5937L16.4551 18.0469C16.6664 18.2582 16.9531 18.3769 17.252 18.3769C17.5508 18.3769 17.8375 18.2582 18.0488 18.0469C18.2602 17.8355 18.3789 17.5489 18.3789 17.25C18.3789 16.9511 18.2602 16.6645 18.0488 16.4531L13.5929 12Z" fill="black"/>
</svg>
