<svg width="18" height="17" viewBox="0 0 18 17" fill="none" xmlns="http://www.w3.org/2000/svg">
<path d="M7.19234 6.90625H3.12158V4.25C3.12158 4.10908 3.17761 3.974 3.27722 3.87432C3.37683 3.77472 3.51198 3.71875 3.65283 3.71875H7.19234C7.30712 3.7192 7.41879 3.75643 7.51101 3.82497L9.49658 5.3125L7.51101 6.80003C7.41879 6.86857 7.30712 6.9058 7.19234 6.90625Z" fill="black" fill-opacity="0.1"/>
<path d="M3.6543 13.2813V6.90625C3.6543 6.61285 3.41645 6.375 3.12305 6.375C2.82965 6.375 2.5918 6.61285 2.5918 6.90625V13.2813C2.5918 13.7214 2.903 14.0326 2.903 14.0326C3.21419 14.3438 3.6543 14.3438 3.6543 14.3438H15.3418C15.7819 14.3438 16.0931 14.0326 16.0931 14.0326C16.4043 13.7214 16.4043 13.2813 16.4043 13.2813V5.84375C16.4043 5.40365 16.0931 5.09245 16.0931 5.09245C15.7819 4.78125 15.3418 4.78125 15.3418 4.78125H9.49805C9.20464 4.78125 8.9668 5.0191 8.9668 5.3125C8.9668 5.6059 9.20464 5.84375 9.49805 5.84375H15.3418V13.2813H3.6543Z" fill="#1C1C1C"/>
<path fill-rule="evenodd" clip-rule="evenodd" d="M7.83096 7.22631C7.83096 7.22631 7.54911 7.43589 7.19792 7.43749L7.19742 7.4375L7.19521 7.4375H3.12451C2.83111 7.4375 2.59326 7.19965 2.59326 6.90625V4.25C2.59326 4.25 2.59326 3.8099 2.90446 3.4987C2.90446 3.4987 3.21566 3.1875 3.65576 3.1875L7.1974 3.1875C7.1974 3.1875 7.5489 3.18895 7.83249 3.39983L9.81803 4.88733C9.85847 4.91763 9.89439 4.95354 9.92468 4.99398C10.0092 5.10674 10.0454 5.24844 10.0254 5.38791C10.0054 5.52738 9.9308 5.65319 9.81803 5.73767L7.83096 7.22631ZM7.19326 6.375C7.19326 6.375 7.19531 6.37493 7.19696 6.37369L8.61346 5.3125L7.19544 4.25017C7.19544 4.25017 7.19521 4.25 7.19303 4.25L3.65576 4.25V6.375H7.19326Z" fill="#1C1C1C"/>
</svg>
