<svg width="32" height="33" viewBox="0 0 32 33" fill="none" xmlns="http://www.w3.org/2000/svg">
<g clip-path="url(#clip0_2769_19194)">
<path d="M32 16.7197C32 7.88316 24.8366 0.719727 16 0.719727C7.16344 0.719727 0 7.88316 0 16.7197C0 24.7057 5.85094 31.325 13.5 32.5254V21.3447H9.4375V16.7197H13.5V13.1947C13.5 9.18473 15.8888 6.96973 19.5434 6.96973C21.2934 6.96973 23.125 7.28223 23.125 7.28223V11.2197H21.1075C19.12 11.2197 18.5 12.4532 18.5 13.7197V16.7197H22.9375L22.2281 21.3447H18.5V32.5254C26.1491 31.325 32 24.7057 32 16.7197Z" fill="#111D2D"/>
</g>
<defs>
<clipPath id="clip0_2769_19194">
<rect width="32" height="32" fill="white" transform="translate(0 0.719727)"/>
</clipPath>
</defs>
</svg>
