<svg width="121" height="120" viewBox="0 0 121 120" fill="none" xmlns="http://www.w3.org/2000/svg">
<path d="M91.3643 88.25C94.4727 90.1502 96.1092 92.3058 96.1092 94.5C96.1092 96.6942 94.4728 98.8498 91.3643 100.75C88.2558 102.65 83.7849 104.228 78.4009 105.325C73.0169 106.422 66.9095 107 60.6926 107C54.4756 107 48.3682 106.422 42.9842 105.325C37.6002 104.228 33.1293 102.65 30.0208 100.75C26.9124 98.8498 25.2759 96.6942 25.2759 94.5C25.2759 92.3058 26.9123 90.1502 30.0208 88.25" stroke="black" stroke-width="4" stroke-linecap="round"/>
<path d="M91.7759 45.25C91.7759 68.0162 64.6634 82.7137 60.9463 84.6218C60.6741 84.7615 60.3777 84.7615 60.1055 84.6218C56.3883 82.7137 29.2759 68.0162 29.2759 45.25C29.2759 26.5 44.4176 14 60.5259 14C77.1925 14 91.7759 26.5 91.7759 45.25Z" stroke="black" stroke-width="4"/>
<path d="M75.6092 45.2499C75.6092 53.3501 69.0427 59.9166 60.9425 59.9166C52.8424 59.9166 46.2759 53.3501 46.2759 45.2499C46.2759 37.1497 52.8424 30.5833 60.9425 30.5833C69.0427 30.5833 75.6092 37.1497 75.6092 45.2499Z" stroke="black" stroke-width="4"/>
</svg>
