<svg width="25" height="24" viewBox="0 0 25 24" fill="none" xmlns="http://www.w3.org/2000/svg">
<path d="M21.75 4.6875H3.25C2.83579 4.6875 2.5 5.02329 2.5 5.4375C2.5 5.85171 2.83579 6.1875 3.25 6.1875H21.75C22.1642 6.1875 22.5 5.85171 22.5 5.4375C22.5 5.02329 22.1642 4.6875 21.75 4.6875Z" fill="#111D2D"/>
<path d="M21.75 11.25H3.25C2.83579 11.25 2.5 11.5858 2.5 12C2.5 12.4142 2.83579 12.75 3.25 12.75H21.75C22.1642 12.75 22.5 12.4142 22.5 12C22.5 11.5858 22.1642 11.25 21.75 11.25Z" fill="#111D2D"/>
<path d="M21.75 17.8125H3.25C2.83579 17.8125 2.5 18.1483 2.5 18.5625C2.5 18.9767 2.83579 19.3125 3.25 19.3125H21.75C22.1642 19.3125 22.5 18.9767 22.5 18.5625C22.5 18.1483 22.1642 17.8125 21.75 17.8125Z" fill="#111D2D"/>
</svg>
