<svg width="15" height="15" viewBox="0 0 15 15" fill="none" xmlns="http://www.w3.org/2000/svg">
<path d="M11.8723 9.48488L13.7748 11.3874C14.0518 11.6644 14.0518 12.1134 13.7748 12.3904C12.2775 13.8878 9.90688 14.0562 8.21277 12.7857L7.35121 12.1395C5.75385 10.9415 4.33487 9.52249 3.13685 7.92512L2.49068 7.06356C1.2201 5.36946 1.38857 2.99888 2.88596 1.50149C3.16292 1.22452 3.61197 1.22452 3.88893 1.50149L5.79145 3.404C6.18198 3.79453 6.18198 4.42769 5.79145 4.81822L5.15436 5.45531C5.02814 5.58153 4.99685 5.77436 5.07668 5.93401C5.99964 7.77993 7.49641 9.2767 9.34232 10.1997C9.50198 10.2795 9.69481 10.2482 9.82103 10.122L10.4581 9.48488C10.8486 9.09436 11.4818 9.09436 11.8723 9.48488Z" stroke="#111D2D"/>
</svg>
