<svg width="121" height="120" viewBox="0 0 121 120" fill="none" xmlns="http://www.w3.org/2000/svg">
<path d="M99.1348 100.036C99.1852 99.9255 99.2153 99.8047 99.2355 99.6739C99.2355 99.6437 99.2556 99.6135 99.2556 99.5833V99.5632C99.2757 99.4122 99.2757 99.2613 99.2657 99.1103C99.2657 99.07 99.2556 99.0298 99.2455 98.9996C99.2254 98.8788 99.1952 98.758 99.165 98.6373C99.165 98.6171 99.165 98.5869 99.1449 98.5668L84.8736 61.0668C89.2415 55.6723 91.8683 48.8184 91.8683 41.3607C91.8683 24.07 77.7983 10 60.4976 10C43.1968 10 29.1368 24.07 29.1368 41.3607C29.1368 48.8184 31.7637 55.6824 36.1316 61.0668L21.8502 98.5769C21.8502 98.5769 21.8301 98.6675 21.81 98.7178C21.7999 98.758 21.7898 98.7983 21.7798 98.8386C21.7596 98.9291 21.7496 99.0197 21.7395 99.1002C21.7395 99.1405 21.7395 99.1807 21.7395 99.221C21.7395 99.3116 21.7395 99.4022 21.7496 99.4927C21.7496 99.5129 21.7496 99.5431 21.7496 99.5632C21.7496 99.5833 21.7596 99.6035 21.7697 99.6236C21.7798 99.7041 21.7999 99.7846 21.8301 99.8651C21.8502 99.9255 21.8603 99.9758 21.8905 100.026C21.9106 100.087 21.9408 100.137 21.971 100.197C22.0012 100.258 22.0414 100.328 22.0817 100.388C22.1119 100.429 22.1421 100.469 22.1723 100.509C22.2226 100.58 22.2729 100.64 22.3333 100.7C22.3635 100.731 22.3937 100.761 22.4239 100.781C22.4943 100.841 22.5648 100.902 22.6453 100.952C22.6755 100.972 22.6956 100.982 22.7258 101.002C22.8164 101.053 22.907 101.103 23.0076 101.143C23.0177 101.143 23.0277 101.153 23.0378 101.153C23.0479 101.153 23.068 101.153 23.0781 101.163C23.1686 101.194 23.2693 101.224 23.3599 101.244C23.3901 101.244 23.4102 101.244 23.4404 101.254C23.531 101.264 23.6215 101.274 23.7222 101.284C23.7222 101.284 23.7423 101.284 23.7524 101.284C23.7624 101.284 23.7725 101.284 23.7826 101.284C23.8631 101.284 23.9436 101.284 24.0342 101.284L37.1079 99.4525L45.0286 109.245C45.0286 109.245 45.0789 109.285 45.099 109.316C45.1594 109.386 45.2198 109.446 45.2902 109.507C45.3405 109.547 45.3909 109.587 45.4412 109.618C45.5016 109.658 45.562 109.698 45.6224 109.728C45.6928 109.769 45.7532 109.799 45.8236 109.829C45.8438 109.829 45.8538 109.849 45.874 109.849C45.9142 109.869 45.9645 109.869 46.0048 109.889C46.0753 109.909 46.1457 109.93 46.2162 109.95C46.2765 109.96 46.3369 109.96 46.4074 109.97C46.4678 109.97 46.5382 109.99 46.5986 109.99C46.9911 109.99 47.3736 109.869 47.7157 109.648H47.7359C47.7359 109.648 47.8265 109.577 47.8667 109.547C48.1485 109.316 48.3397 109.034 48.4706 108.712C48.4706 108.712 48.4706 108.702 48.4806 108.692L48.5209 108.601C48.5209 108.601 48.5209 108.581 48.531 108.571L60.5378 77.039L72.5749 108.702C72.5749 108.702 72.605 108.742 72.6151 108.772C72.6654 108.883 72.7258 108.994 72.7862 109.094C72.8063 109.134 72.8365 109.165 72.8567 109.205C72.9472 109.326 73.0479 109.436 73.1687 109.527C73.1687 109.527 73.1787 109.537 73.1888 109.547C73.3096 109.648 73.4505 109.728 73.5813 109.789C73.6115 109.809 73.6417 109.819 73.6819 109.829C73.8329 109.889 73.9839 109.94 74.1348 109.96C74.2254 109.98 74.3261 109.98 74.4166 109.98C74.4267 109.98 74.4368 109.98 74.4468 109.98C74.4468 109.98 74.477 109.98 74.4871 109.98C74.6179 109.98 74.7588 109.96 74.8897 109.94C74.9501 109.93 75.0004 109.899 75.0507 109.889C75.1413 109.859 75.2218 109.839 75.3124 109.799C75.3728 109.769 75.4331 109.728 75.4935 109.688C75.564 109.648 75.6244 109.618 75.6848 109.567C75.8055 109.477 75.9162 109.366 76.0068 109.245L83.9174 99.4525L97.0012 101.284C97.1622 101.304 97.3132 101.304 97.4641 101.284C97.5245 101.284 97.5748 101.264 97.6352 101.254C97.7359 101.234 97.8265 101.214 97.917 101.184C97.9774 101.163 98.0378 101.143 98.0881 101.123C98.1888 101.083 98.2794 101.023 98.3699 100.962C98.4203 100.932 98.4706 100.902 98.5108 100.862C98.6215 100.781 98.7121 100.68 98.8027 100.58C98.8128 100.56 98.8329 100.55 98.843 100.539C98.8631 100.509 98.8732 100.479 98.8933 100.449C98.9537 100.358 99.0141 100.268 99.0644 100.167C99.0845 100.117 99.1147 100.076 99.1348 100.026V100.036ZM60.4976 14.0258C75.574 14.0258 87.8325 26.2943 87.8325 41.3607C87.8325 56.4271 75.564 68.6956 60.4976 68.6956C45.4311 68.6956 33.1626 56.4372 33.1626 41.3607C33.1626 26.2842 45.4311 14.0258 60.4976 14.0258ZM37.6614 95.316L26.822 96.8357L39.1912 64.3478C44.1932 68.9875 50.7049 72.0169 57.9009 72.6107L45.9444 104.002L39.5133 96.0507C39.0704 95.5072 38.376 95.2154 37.6715 95.3261L37.6614 95.316ZM81.4819 96.0406L75.0608 103.992L63.1244 72.6107C70.3104 72.0068 76.812 68.9875 81.8039 64.3478L94.163 96.8257L83.3236 95.316C82.6292 95.2053 81.9247 95.4972 81.4819 96.0406V96.0406Z" fill="black"/>
<path d="M45.552 46.4935L55.9385 54.9376C56.3008 55.2295 56.7436 55.3905 57.2066 55.3905C57.2871 55.3905 57.3676 55.3905 57.4481 55.3804C57.9916 55.32 58.4848 55.0382 58.8068 54.6055L76.329 31.6586C77.0033 30.7729 76.8322 29.5149 75.9465 28.8406C75.0608 28.1662 73.8028 28.3373 73.1285 29.223L56.8644 50.5193L48.0882 43.3836C47.2227 42.6791 45.9546 42.81 45.2601 43.6755C44.5556 44.541 44.6864 45.8092 45.552 46.5036V46.4935Z" fill="black"/>
</svg>
