<svg width="24" height="24" viewBox="0 0 24 24" fill="none" xmlns="http://www.w3.org/2000/svg">
<path d="M3.53263 11.25C3.82888 7.86136 6.11349 5.04268 9.21303 3.96742C8.99197 4.33388 8.79202 4.73947 8.61322 5.1737C7.94881 6.78728 7.52777 8.91501 7.4531 11.25H3.53263ZM12 2C6.47713 2 2 6.47715 2 12C2 17.5228 6.47713 22 12 22C17.5228 22 22 17.5228 22 12C22 6.47715 17.5228 2 12 2ZM12 3.5C12.2613 3.5 12.5805 3.62547 12.9451 4.00008C13.3121 4.37705 13.6772 4.96154 13.9997 5.74482C14.5777 7.1485 14.9717 9.07487 15.046 11.25H8.95391C9.02824 9.07487 9.42226 7.1485 10.0002 5.74482C10.3228 4.96154 10.6878 4.37705 11.0548 4.00008C11.4195 3.62547 11.7386 3.5 12 3.5ZM16.5469 11.25C16.4722 8.91501 16.0511 6.78728 15.3867 5.1737C15.2079 4.73947 15.008 4.33388 14.7869 3.96743C17.8865 5.04268 20.1711 7.86136 20.4673 11.25H16.5469ZM15.046 12.75C14.9717 14.9251 14.5777 16.8515 13.9997 18.2552C13.6772 19.0385 13.3121 19.6229 12.9451 19.9999C12.5805 20.3745 12.2613 20.5 12 20.5C11.7386 20.5 11.4195 20.3745 11.0548 19.9999C10.6878 19.6229 10.3228 19.0385 10.0002 18.2552C9.42226 16.8515 9.02824 14.9251 8.95391 12.75H15.046ZM14.7869 20.0326C15.008 19.6661 15.2079 19.2605 15.3867 18.8263C16.0511 17.2127 16.4722 15.085 16.5469 12.75H20.4673C20.1711 16.1386 17.8865 18.9573 14.7869 20.0326ZM9.21303 20.0326C6.11349 18.9573 3.82888 16.1386 3.53263 12.75H7.4531C7.52777 15.085 7.94881 17.2127 8.61322 18.8263C8.79202 19.2605 8.99197 19.6661 9.21303 20.0326Z" fill="white"/>
</svg>
