<svg width="25" height="24" viewBox="0 0 25 24" fill="none" xmlns="http://www.w3.org/2000/svg">
<path d="M4.03263 11.25C4.32888 7.86136 6.61349 5.04268 9.71303 3.96742C9.49197 4.33388 9.29202 4.73947 9.11322 5.1737C8.44881 6.78728 8.02777 8.91501 7.9531 11.25H4.03263ZM12.5 2C6.97713 2 2.5 6.47715 2.5 12C2.5 17.5228 6.97713 22 12.5 22C18.0228 22 22.5 17.5228 22.5 12C22.5 6.47715 18.0228 2 12.5 2ZM12.5 3.5C12.7613 3.5 13.0805 3.62547 13.4451 4.00008C13.8121 4.37705 14.1772 4.96154 14.4997 5.74482C15.0777 7.1485 15.4717 9.07487 15.546 11.25H9.45391C9.52824 9.07487 9.92226 7.1485 10.5002 5.74482C10.8228 4.96154 11.1878 4.37705 11.5548 4.00008C11.9195 3.62547 12.2386 3.5 12.5 3.5ZM17.0469 11.25C16.9722 8.91501 16.5511 6.78728 15.8867 5.1737C15.7079 4.73947 15.508 4.33388 15.2869 3.96743C18.3865 5.04268 20.6711 7.86136 20.9673 11.25H17.0469ZM15.546 12.75C15.4717 14.9251 15.0777 16.8515 14.4997 18.2552C14.1772 19.0385 13.8121 19.6229 13.4451 19.9999C13.0805 20.3745 12.7613 20.5 12.5 20.5C12.2386 20.5 11.9195 20.3745 11.5548 19.9999C11.1878 19.6229 10.8228 19.0385 10.5002 18.2552C9.92226 16.8515 9.52824 14.9251 9.45391 12.75H15.546ZM15.2869 20.0326C15.508 19.6661 15.7079 19.2605 15.8867 18.8263C16.5511 17.2127 16.9722 15.085 17.0469 12.75H20.9673C20.6711 16.1386 18.3865 18.9573 15.2869 20.0326ZM9.71303 20.0326C6.61349 18.9573 4.32888 16.1386 4.03263 12.75H7.9531C8.02777 15.085 8.44881 17.2127 9.11322 18.8263C9.29202 19.2605 9.49197 19.6661 9.71303 20.0326Z" fill="#111D2D"/>
</svg>
