<svg width="18" height="18" viewBox="0 0 18 18" fill="none" xmlns="http://www.w3.org/2000/svg">
<path fill-rule="evenodd" clip-rule="evenodd" d="M3.9375 2.25H14.0625C14.2116 2.25 14.3547 2.30933 14.4602 2.41479C14.5657 2.52026 14.625 2.66336 14.625 2.8125V15.1875C14.625 15.3366 14.5657 15.4797 14.4602 15.5852C14.3547 15.6907 14.2116 15.75 14.0625 15.75H3.9375C3.78836 15.75 3.64526 15.6907 3.53979 15.5852C3.43433 15.4797 3.375 15.3366 3.375 15.1875V2.8125C3.375 2.66336 3.43433 2.52026 3.53979 2.41479C3.64526 2.30933 3.78836 2.25 3.9375 2.25ZM7.75003 11.4333C8.12 11.6805 8.55505 11.8125 9 11.8125C9.5967 11.8125 10.1691 11.5755 10.591 11.1535C11.013 10.7316 11.25 10.1592 11.25 9.5625C11.25 9.11755 11.118 8.68249 10.8708 8.31253C10.6235 7.94243 10.2722 7.65404 9.86105 7.48375C9.44989 7.31346 8.99753 7.26897 8.5611 7.35576C8.12453 7.44255 7.72366 7.65678 7.40904 7.97154C7.09428 8.28616 6.88005 8.68703 6.79326 9.1236C6.70647 9.56003 6.75096 10.0124 6.92125 10.4236C7.09154 10.8347 7.37993 11.186 7.75003 11.4333Z" fill="black" fill-opacity="0.1"/>
<path fill-rule="evenodd" clip-rule="evenodd" d="M9 6.75C9 6.75 10.165 6.75 10.9887 7.57376C10.9887 7.57376 11.8125 8.39752 11.8125 9.5625C11.8125 9.5625 11.8125 10.7275 10.9887 11.5512C10.9887 11.5512 10.165 12.375 9 12.375C9 12.375 7.83502 12.375 7.01126 11.5512C7.01126 11.5512 6.1875 10.7275 6.1875 9.5625C6.1875 9.5625 6.1875 8.39752 7.01126 7.57376C7.01126 7.57376 7.83502 6.75 9 6.75ZM9 7.875C9 7.875 8.30101 7.875 7.80676 8.36926C7.80676 8.36926 7.3125 8.86351 7.3125 9.5625C7.3125 9.5625 7.3125 10.2615 7.80676 10.7557C7.80676 10.7557 8.30101 11.25 9 11.25C9 11.25 9.69899 11.25 10.1932 10.7557C10.1932 10.7557 10.6875 10.2615 10.6875 9.5625C10.6875 9.5625 10.6875 8.86351 10.1932 8.36926C10.1932 8.36926 9.69899 7.875 9 7.875Z" fill="#1C1C1C"/>
<path d="M10.6351 12.761C11.4071 13.147 11.925 13.8375 11.925 13.8375C12.0145 13.9568 12.1478 14.0357 12.2955 14.0568C12.3218 14.0606 12.3484 14.0625 12.375 14.0625L12.3769 14.0625C12.498 14.0621 12.6157 14.0226 12.7125 13.95C12.8541 13.8438 12.9375 13.6771 12.9375 13.5L12.9375 13.4926C12.9359 13.3734 12.8965 13.2578 12.825 13.1625C12.1478 12.2595 11.1382 11.7548 11.1382 11.7548C10.1287 11.25 9 11.25 9 11.25C7.8713 11.25 6.86176 11.7548 6.86176 11.7548C5.85222 12.2595 5.175 13.1625 5.175 13.1625C5.10198 13.2599 5.0625 13.3783 5.0625 13.5L5.06252 13.505C5.06274 13.5299 5.06462 13.5548 5.06815 13.5795C5.08925 13.7272 5.16815 13.8605 5.2875 13.95C5.38487 14.023 5.50329 14.0625 5.625 14.0625L5.62995 14.0625C5.65491 14.0623 5.67984 14.0604 5.70455 14.0568C5.85223 14.0357 5.98549 13.9568 6.075 13.8375C6.59287 13.147 7.36488 12.761 7.36488 12.761C8.13688 12.375 9 12.375 9 12.375C9.86312 12.375 10.6351 12.761 10.6351 12.761Z" fill="#1C1C1C"/>
<path fill-rule="evenodd" clip-rule="evenodd" d="M14.0625 1.6875C14.0625 1.6875 14.5285 1.6875 14.858 2.017C14.858 2.017 15.1875 2.34651 15.1875 2.8125V15.1875C15.1875 15.1875 15.1875 15.6535 14.858 15.983C14.858 15.983 14.5285 16.3125 14.0625 16.3125H3.9375C3.9375 16.3125 3.47151 16.3125 3.142 15.983C3.142 15.983 2.8125 15.6535 2.8125 15.1875V2.8125C2.8125 2.8125 2.8125 2.34651 3.142 2.017C3.142 2.017 3.47151 1.6875 3.9375 1.6875L14.0625 1.6875ZM14.0625 2.8125L3.9375 2.8125V15.1875H14.0625V2.8125Z" fill="#1C1C1C"/>
<path d="M6.75 5.0625H11.25C11.5607 5.0625 11.8125 4.81066 11.8125 4.5C11.8125 4.18934 11.5607 3.9375 11.25 3.9375H6.75C6.43934 3.9375 6.1875 4.18934 6.1875 4.5C6.1875 4.81066 6.43934 5.0625 6.75 5.0625Z" fill="#1C1C1C"/>
</svg>
