<svg width="19" height="18" viewBox="0 0 19 18" fill="none" xmlns="http://www.w3.org/2000/svg">
<path d="M12.8093 9.84375C12.8093 11.3971 11.5502 12.6562 9.99683 12.6562C8.4435 12.6562 7.18433 11.3971 7.18433 9.84375C7.18433 8.29042 8.4435 7.03125 9.99683 7.03125C11.5502 7.03125 12.8093 8.29042 12.8093 9.84375Z" fill="black" fill-opacity="0.1"/>
<path d="M7.46606 5.90625C7.46606 7.14894 6.45876 8.15625 5.21606 8.15625C3.97337 8.15625 2.96606 7.14894 2.96606 5.90625C2.96606 4.66356 3.97337 3.65625 5.21606 3.65625C6.45876 3.65625 7.46606 4.66356 7.46606 5.90625Z" fill="black" fill-opacity="0.1"/>
<path d="M17.0278 5.90625C17.0278 7.14894 16.0205 8.15625 14.7778 8.15625C13.5351 8.15625 12.5278 7.14894 12.5278 5.90625C12.5278 4.66356 13.5351 3.65625 14.7778 3.65625C16.0205 3.65625 17.0278 4.66356 17.0278 5.90625Z" fill="black" fill-opacity="0.1"/>
<path fill-rule="evenodd" clip-rule="evenodd" d="M9.99854 6.46875C9.99854 6.46875 11.3965 6.46875 12.385 7.45726C12.385 7.45726 13.3735 8.44578 13.3735 9.84375C13.3735 9.84375 13.3735 11.2417 12.385 12.2302C12.385 12.2302 11.3965 13.2188 9.99854 13.2187C9.99854 13.2187 8.60056 13.2187 7.61205 12.2302C7.61205 12.2302 6.62354 11.2417 6.62354 9.84375C6.62354 9.84375 6.62353 8.44578 7.61205 7.45726C7.61205 7.45726 8.60056 6.46875 9.99854 6.46875ZM9.99854 7.59375C9.99854 7.59375 9.06655 7.59375 8.40754 8.25276C8.40754 8.25276 7.74853 8.91177 7.74854 9.84375C7.74854 9.84375 7.74854 10.7757 8.40754 11.4347C8.40754 11.4347 9.06655 12.0937 9.99854 12.0937C9.99854 12.0937 10.9305 12.0937 11.5895 11.4347C11.5895 11.4347 12.2485 10.7757 12.2485 9.84375C12.2485 9.84375 12.2485 8.91177 11.5895 8.25276C11.5895 8.25276 10.9305 7.59375 9.99854 7.59375Z" fill="#1C1C1C"/>
<path d="M17.703 10.1803L17.7032 10.1805C17.7925 10.3 17.9256 10.3791 18.0733 10.4005C18.0999 10.4043 18.1268 10.4063 18.1538 10.4063L18.1548 10.4063C18.2758 10.406 18.3936 10.3668 18.4905 10.2943C18.6326 10.1881 18.7163 10.0211 18.7163 9.84376L18.7162 9.83732C18.7149 9.71814 18.6757 9.60247 18.6043 9.507L18.6039 9.50637C17.9277 8.60203 16.9178 8.09704 16.9178 8.09704C15.9074 7.59187 14.7778 7.59376 14.7778 7.59376L14.7788 7.59376C15.0894 7.59376 15.3413 7.8456 15.3413 8.15626C15.3413 8.46643 15.0902 8.71807 14.78 8.71875L17.703 10.1803Z" fill="#1C1C1C"/>
<path d="M3.58141 9.10327C4.35332 8.71731 5.21634 8.71876 5.21634 8.71876L5.21713 8.71876H5.21729C5.22598 8.71876 5.23468 8.71855 5.24337 8.71815C5.38305 8.71167 5.51532 8.65338 5.61437 8.55467C5.72003 8.44936 5.77953 8.30638 5.77978 8.1572L5.77979 8.15642V8.15626C5.77979 8.12224 5.7767 8.08829 5.77057 8.05483C5.72167 7.78809 5.48941 7.59421 5.21823 7.59376L5.21729 7.59376C4.08822 7.59208 3.0783 8.09704 3.0783 8.09704C2.06832 8.60203 1.3922 9.50637 1.3922 9.50637L1.39179 9.50691C1.31905 9.60424 1.27979 9.72237 1.27979 9.84376L1.27982 9.84965C1.28008 9.87461 1.282 9.89953 1.28557 9.92424C1.30692 10.0719 1.38604 10.205 1.50554 10.2943C1.60277 10.367 1.7209 10.4063 1.84229 10.4063C1.84981 10.4063 1.85733 10.4061 1.86484 10.4058C2.03416 10.399 2.1914 10.3162 2.29285 10.1805C2.80951 9.48922 3.58141 9.10327 3.58141 9.10327Z" fill="#1C1C1C"/>
<path d="M12.0863 13.8196C13.0448 14.4182 13.5408 15.4335 13.5408 15.4335L13.5411 15.4341L13.5413 15.4345C13.6356 15.6276 13.8318 15.7502 14.0468 15.7502L14.0622 15.7499C14.1425 15.7477 14.2214 15.7284 14.2936 15.6931C14.4868 15.5988 14.6093 15.4026 14.6093 15.1877L14.6091 15.1723C14.6069 15.0919 14.5875 15.013 14.5522 14.9408L14.552 14.9404C13.9145 13.635 12.6822 12.8654 12.6822 12.8654C11.4498 12.0957 9.99678 12.0957 9.99678 12.0957C8.54373 12.0957 7.31131 12.8654 7.31131 12.8654C6.07909 13.635 5.44154 14.9404 5.44154 14.9404L5.44134 14.9408C5.40379 15.0177 5.38428 15.1021 5.38428 15.1877L5.38433 15.195C5.3851 15.2547 5.3954 15.314 5.41484 15.3705C5.46335 15.5116 5.56591 15.6277 5.69997 15.6931C5.77683 15.7306 5.86124 15.7502 5.94678 15.7502L5.95969 15.75C6.16995 15.7452 6.35996 15.6235 6.45224 15.4345C6.94832 14.4185 7.90725 13.8196 7.90725 13.8196C8.86618 13.2207 9.99678 13.2207 9.99678 13.2207C11.1274 13.2207 12.0863 13.8196 12.0863 13.8196Z" fill="#1C1C1C"/>
<path d="M6.44557 4.75109C6.78133 5.10847 6.87328 5.59014 6.87328 5.59014C6.90125 5.73668 6.98629 5.86611 7.10968 5.94995C7.20293 6.0133 7.31307 6.04717 7.4258 6.04717L7.42944 6.04716C7.46362 6.04694 7.4977 6.04361 7.53127 6.0372C7.79647 5.98657 7.9883 5.75466 7.9883 5.48467L7.98829 5.4815C7.9881 5.44717 7.98476 5.41293 7.97832 5.37921C7.82508 4.57642 7.26548 3.98078 7.26548 3.98078C6.70588 3.38514 5.91421 3.18217 5.91421 3.18217C5.12254 2.97919 4.34537 3.2321 4.34537 3.2321C3.56821 3.48501 3.04762 4.11503 3.04762 4.11503C2.52702 4.74504 2.42514 5.55595 2.42514 5.55595C2.32326 6.36685 2.67183 7.10607 2.67183 7.10607C3.02039 7.84529 3.71084 8.28258 3.71084 8.28258C4.40104 8.71973 5.21799 8.71905 5.21799 8.71905L5.21856 8.71905C5.36774 8.7189 5.51076 8.65949 5.61614 8.55389C5.72138 8.44844 5.78049 8.30554 5.78049 8.15655L5.78049 8.15598C5.78017 7.84554 5.52842 7.59405 5.21799 7.59405L5.21742 7.59405C4.72705 7.59455 4.31278 7.33217 4.31278 7.33217C3.89852 7.06979 3.68938 6.62626 3.68938 6.62626C3.48024 6.18273 3.54137 5.69619 3.54137 5.69619C3.6025 5.20965 3.91485 4.83164 3.91485 4.83164C4.22721 4.45362 4.69351 4.30188 4.69351 4.30188C5.1598 4.15014 5.63481 4.27192 5.63481 4.27192C6.10981 4.39371 6.44557 4.75109 6.44557 4.75109Z" fill="#1C1C1C"/>
<path d="M15.6848 7.33217C15.2705 7.59455 14.7802 7.59405 14.7802 7.59405L14.7796 7.59405C14.7708 7.59405 14.762 7.59426 14.7531 7.59467L14.2177 8.183C14.2243 8.32268 14.2827 8.45491 14.3814 8.55389C14.4868 8.65949 14.6298 8.7189 14.779 8.71905L14.7796 8.71905C15.5965 8.71972 16.2867 8.28258 16.2867 8.28258C16.9772 7.84529 17.3257 7.10607 17.3257 7.10607C17.6743 6.36685 17.5724 5.55595 17.5724 5.55595C17.4706 4.74504 16.95 4.11503 16.95 4.11503C16.4294 3.48501 15.6522 3.2321 15.6522 3.2321C14.875 2.97919 14.0834 3.18217 14.0834 3.18217C13.2917 3.38514 12.7321 3.98078 12.7321 3.98078C12.1725 4.57642 12.0193 5.3792 12.0193 5.3792C12.0126 5.41397 12.0093 5.44928 12.0093 5.48467C12.0093 5.50158 12.01 5.51847 12.0116 5.53531C12.0342 5.78534 12.2197 5.99013 12.4663 6.0372C12.5011 6.04383 12.5364 6.04717 12.5718 6.04717C12.5887 6.04717 12.6056 6.04641 12.6224 6.04489C12.8724 6.02229 13.0772 5.83674 13.1243 5.59014C13.2162 5.10847 13.552 4.75109 13.552 4.75109C13.8878 4.39371 14.3628 4.27192 14.3628 4.27192C14.8378 4.15014 15.3041 4.30188 15.3041 4.30188C15.7704 4.45362 16.0827 4.83164 16.0827 4.83164C16.3951 5.20965 16.4562 5.69619 16.4562 5.69619C16.5173 6.18273 16.3082 6.62626 16.3082 6.62626C16.0991 7.06979 15.6848 7.33217 15.6848 7.33217Z" fill="#1C1C1C"/>
</svg>
