<svg width="25" height="45" viewBox="0 0 25 45" fill="none" xmlns="http://www.w3.org/2000/svg">
<path d="M15.7439 21.7801C15.8846 21.9207 15.9637 22.1113 15.9639 22.3101L15.9639 22.6901C15.9616 22.8886 15.8828 23.0784 15.7439 23.2201L10.6039 28.3501C10.51 28.4448 10.3822 28.498 10.2489 28.498C10.1155 28.498 9.98775 28.4448 9.89387 28.3501L9.18387 27.6401C9.0898 27.548 9.0368 27.4218 9.0368 27.2901C9.0368 27.1585 9.0898 27.0323 9.18387 26.9401L13.6339 22.5001L9.18387 18.0601C9.08921 17.9663 9.03597 17.8385 9.03597 17.7051C9.03597 17.5718 9.08921 17.444 9.18387 17.3501L9.89387 16.6501C9.98775 16.5555 10.1155 16.5022 10.2489 16.5022C10.3822 16.5022 10.51 16.5555 10.6039 16.6501L15.7439 21.7801Z" fill="#989DAD"/>
</svg>
