<svg width="25" height="45" viewBox="0 0 25 45" fill="none" xmlns="http://www.w3.org/2000/svg">
<path d="M9.25589 23.2203C9.1152 23.0798 9.03606 22.8892 9.03589 22.6903V22.3103C9.03819 22.1119 9.117 21.9221 9.25589 21.7803L14.3959 16.6503C14.4898 16.5557 14.6176 16.5024 14.7509 16.5024C14.8842 16.5024 15.012 16.5557 15.1059 16.6503L15.8159 17.3603C15.91 17.4525 15.963 17.5787 15.963 17.7103C15.963 17.842 15.91 17.9682 15.8159 18.0603L11.3659 22.5003L15.8159 26.9403C15.9105 27.0342 15.9638 27.162 15.9638 27.2953C15.9638 27.4287 15.9105 27.5565 15.8159 27.6503L15.1059 28.3503C15.012 28.445 14.8842 28.4982 14.7509 28.4982C14.6176 28.4982 14.4898 28.445 14.3959 28.3503L9.25589 23.2203Z" fill="#989DAD"/>
</svg>
