<svg width="16" height="15" viewBox="0 0 16 15" fill="none" xmlns="http://www.w3.org/2000/svg">
<path d="M3.27604 11.849C3.15516 11.849 3.03928 11.8009 2.95377 11.7155C2.86832 11.63 2.82031 11.5141 2.82031 11.3932V3.1901C2.82031 3.06922 2.86832 2.95334 2.95377 2.86783C3.03928 2.78238 3.15516 2.73438 3.27604 2.73438H6.01042V11.849H3.27604Z" fill="black" fill-opacity="0.1"/>
<path d="M5.55469 2.73503V11.8496C5.55469 12.1013 5.75872 12.3053 6.01042 12.3053C6.26211 12.3053 6.46615 12.1013 6.46615 11.8496V2.73503C6.46615 2.48333 6.26211 2.2793 6.01042 2.2793C5.75872 2.2793 5.55469 2.48333 5.55469 2.73503Z" fill="#1C1C1C"/>
<path fill-rule="evenodd" clip-rule="evenodd" d="M2.3645 3.19076C2.3645 3.19076 2.3645 2.81322 2.63146 2.54626C2.63146 2.54626 2.89842 2.2793 3.27596 2.2793H13.302C13.302 2.2793 13.6795 2.2793 13.9465 2.54626C13.9465 2.54626 14.2135 2.81322 14.2135 3.19076V11.3939C14.2135 11.3939 14.2135 11.7714 13.9465 12.0384C13.9465 12.0384 13.6795 12.3053 13.302 12.3053H3.27596C3.27596 12.3053 2.89842 12.3053 2.63146 12.0384C2.63146 12.0384 2.3645 11.7714 2.3645 11.3939V3.19076ZM3.27596 3.19076V11.3939H13.302V3.19076H3.27596Z" fill="#1C1C1C"/>
<path d="M2.82023 5.01302H4.18742C4.43911 5.01302 4.64315 4.80898 4.64315 4.55729C4.64315 4.3056 4.43911 4.10156 4.18742 4.10156H2.82023C2.56854 4.10156 2.3645 4.3056 2.3645 4.55729C2.3645 4.80898 2.56854 5.01302 2.82023 5.01302Z" fill="#1C1C1C"/>
<path d="M2.82023 6.83529H4.18742C4.43911 6.83529 4.64315 6.63125 4.64315 6.37956C4.64315 6.12787 4.43911 5.92383 4.18742 5.92383H2.82023C2.56854 5.92383 2.3645 6.12787 2.3645 6.37956C2.3645 6.63125 2.56854 6.83529 2.82023 6.83529Z" fill="#1C1C1C"/>
<path d="M2.82023 8.65951H4.18742C4.43911 8.65951 4.64315 8.45547 4.64315 8.20378C4.64315 7.95208 4.43911 7.74805 4.18742 7.74805H2.82023C2.56854 7.74805 2.3645 7.95208 2.3645 8.20378C2.3645 8.45547 2.56854 8.65951 2.82023 8.65951Z" fill="#1C1C1C"/>
</svg>
