<svg width="18" height="18" viewBox="0 0 18 18" fill="none" xmlns="http://www.w3.org/2000/svg">
<path fill-rule="evenodd" clip-rule="evenodd" d="M2.8125 3.375H15.1875C15.3366 3.375 15.4797 3.43433 15.5852 3.53979C15.6907 3.64526 15.75 3.78836 15.75 3.9375V14.0625C15.75 14.2116 15.6907 14.3547 15.5852 14.4602C15.4797 14.5657 15.3366 14.625 15.1875 14.625H2.8125C2.66336 14.625 2.52026 14.5657 2.41479 14.4602C2.30933 14.3547 2.25 14.2116 2.25 14.0625V3.9375C2.25 3.78836 2.30933 3.64526 2.41479 3.53979C2.52026 3.43433 2.66336 3.375 2.8125 3.375ZM5.53821 9.84059C5.81575 10.026 6.14204 10.125 6.47575 10.125C6.69768 10.126 6.91754 10.083 7.12271 9.99838C7.32788 9.91393 7.51424 9.78964 7.67107 9.63281C7.82803 9.47598 7.95218 9.28949 8.03677 9.08432C8.12123 8.87929 8.16421 8.65942 8.16325 8.4375C8.16325 8.10379 8.06438 7.7775 7.87884 7.49995C7.69345 7.22241 7.42992 7.00612 7.12161 6.8784C6.81317 6.75069 6.47397 6.71732 6.14658 6.78241C5.81918 6.8475 5.51857 7.00832 5.2825 7.24425C5.04657 7.48032 4.88576 7.78093 4.82066 8.10832C4.75557 8.43558 4.78908 8.77492 4.91679 9.08322C5.04451 9.39166 5.2608 9.6552 5.53821 9.84059Z" fill="black" fill-opacity="0.1"/>
<path d="M10.688 8.4375H13.5005C13.8111 8.4375 14.063 8.18566 14.063 7.875C14.063 7.56434 13.8111 7.3125 13.5005 7.3125H10.688C10.3773 7.3125 10.1255 7.56434 10.1255 7.875C10.1255 8.18566 10.3773 8.4375 10.688 8.4375Z" fill="#1C1C1C"/>
<path d="M10.688 10.6875H13.5005C13.8111 10.6875 14.063 10.4357 14.063 10.125C14.063 9.81434 13.8111 9.5625 13.5005 9.5625H10.688C10.3773 9.5625 10.1255 9.81434 10.1255 10.125C10.1255 10.4357 10.3773 10.6875 10.688 10.6875Z" fill="#1C1C1C"/>
<path fill-rule="evenodd" clip-rule="evenodd" d="M6.47705 6.1875C6.47705 6.1875 7.40903 6.1875 8.06804 6.84651C8.06804 6.84651 8.72705 7.50552 8.72705 8.4375C8.72705 8.4375 8.72705 9.36948 8.06804 10.0285C8.06804 10.0285 7.40903 10.6875 6.47705 10.6875C6.47705 10.6875 5.54507 10.6875 4.88606 10.0285C4.88606 10.0285 4.22705 9.36948 4.22705 8.4375C4.22705 8.4375 4.22705 7.50552 4.88606 6.84651C4.88606 6.84651 5.54507 6.1875 6.47705 6.1875ZM6.47705 7.3125C6.47705 7.3125 6.01106 7.3125 5.68156 7.642C5.68156 7.642 5.35205 7.97151 5.35205 8.4375C5.35205 8.4375 5.35205 8.90349 5.68156 9.23299C5.68156 9.23299 6.01106 9.5625 6.47705 9.5625C6.47705 9.5625 6.94304 9.5625 7.27255 9.23299C7.27255 9.23299 7.60205 8.90349 7.60205 8.4375C7.60205 8.4375 7.60205 7.97151 7.27255 7.642C7.27255 7.642 6.94304 7.3125 6.47705 7.3125Z" fill="#1C1C1C"/>
<path d="M7.5108 11.0381C7.96701 11.3922 8.11056 11.9514 8.11056 11.9514L8.1107 11.952L8.11084 11.9525C8.17457 12.2014 8.39884 12.3755 8.65576 12.3755L8.66708 12.3754C8.71034 12.3745 8.75336 12.3687 8.79528 12.3579C9.04418 12.2942 9.21826 12.0699 9.21826 11.813L9.21815 11.8017C9.21728 11.7584 9.21142 11.7154 9.20068 11.6735C8.96171 10.7401 8.20062 10.1494 8.20062 10.1494C7.43954 9.55859 6.47607 9.55859 6.47607 9.55859C5.51261 9.55859 4.75153 10.1494 4.75153 10.1494C3.99044 10.7401 3.75146 11.6735 3.75146 11.6735C3.73979 11.7191 3.73389 11.7659 3.73389 11.813C3.73389 11.821 3.73406 11.829 3.7344 11.837C3.73835 11.9296 3.76515 12.0199 3.81241 12.0997C3.88844 12.228 4.01234 12.3209 4.15686 12.3579C4.20245 12.3696 4.24933 12.3755 4.29639 12.3755C4.30439 12.3755 4.31239 12.3753 4.32038 12.375C4.41303 12.371 4.50326 12.3442 4.58305 12.297C4.71141 12.221 4.80431 12.097 4.84131 11.9525C4.98469 11.3925 5.44135 11.0381 5.44135 11.0381C5.898 10.6836 6.47607 10.6836 6.47607 10.6836C7.05415 10.6836 7.5108 11.0381 7.5108 11.0381Z" fill="#1C1C1C"/>
<path fill-rule="evenodd" clip-rule="evenodd" d="M1.68457 3.9375C1.68457 3.9375 1.68457 3.47151 2.01408 3.142C2.01408 3.142 2.34358 2.8125 2.80957 2.8125L15.1846 2.8125C15.1846 2.8125 15.6506 2.8125 15.9801 3.142C15.9801 3.142 16.3096 3.47151 16.3096 3.9375V14.0625C16.3096 14.0625 16.3096 14.5285 15.9801 14.858C15.9801 14.858 15.6506 15.1875 15.1846 15.1875H2.80957C2.80957 15.1875 2.34358 15.1875 2.01408 14.858C2.01408 14.858 1.68457 14.5285 1.68457 14.0625L1.68457 3.9375ZM2.80957 3.9375V14.0625H15.1846V3.9375H2.80957Z" fill="#1C1C1C"/>
</svg>
